{"title":"Bones S11E01 1080p WEB-DL","uid":12518710,"size":1812704250,"categoryP":"video","categoryS":"hd___tv_shows","magnet":"?xt=urn:btih:158f0544343fd68ba2bb453d24b7f3d29e1e8e9e&amp;dn=Bones+S11E01+1080p+WEB-DL&amp;tr=udp%3A%2F%2Ftracker.leechers-paradise.org%3A6969&amp;tr=udp%3A%2F%2Fzer0day.ch%3A1337&amp;tr=udp%3A%2F%2Fopen.demonii.com%3A1337&amp;tr=udp%3A%2F%2Ftracker.coppersurfer.tk%3A6969&amp;tr=udp%3A%2F%2Fexodus.desync.com%3A6969","seeders":1,"leechers":0,"uploader":"Joker__TPB","files":3,"time":1443813011,"description":"Brilliant| but socially inept| forensic anthropologist Dr. Temperence Brennan works at the Jeffersonian Institute in Washington DC. After consulting for him on a FBI\r\ncase| she is approached by cocky yet charming ex-Army Ranger turned Special Agent| Seeley Booth to help the Bureau solve crimes by identifying human remains that are\r\ntoo far gone for standard FBI forensic investigations. Brennan's empirical| literal view of the world causes friction with Booths emotive| instinctive attitude\r\ncreating a volatile relationship. However as their case load increases the symbiotic partnership produces results and with the support of Brennan's Squint Squad|\r\nmurderers| past and present should be on the look out.\r\n=====================================================================================\r\nVideo\r\nID                                       : 1\r\nFormat                                   : AVC\r\nFormat/Info                              : Advanced Video Codec\r\nFormat profile                           :   \r\nFormat settings, CABAC                   : Yes\r\nFormat settings, ReFrames                : 4 frames\r\nCodec ID                                 : V_MPEG4/ISO/AVC\r\nDuration                                 : 45mn 46s\r\nBit rate                                 : 4 790 Kbps\r\nWidth                                    : 1 920 pixels\r\nHeight                                   : 1 080 pixels\r\nDisplay aspect ratio                     : 16:9\r\nFrame rate mode                          : Constant\r\nFrame rate                               : 23.976 fps\r\nColor space                              : YUV\r\nChroma subsampling                       : 4:2:0\r\nBit depth                                : 8 bits\r\nScan type                                : Progressive\r\nBits/(Pixel*Frame)                       : 0.096\r\nStream size                              : 1.53 GiB (91%)\r\nLanguage                                 : English\r\nDefault                                  : Yes\r\nForced                                   : No\r\nColor range                              : Limited\r\nColor primaries                          : BT.709\r\nTransfer characteristics                 : BT.709\r\nMatrix coefficients                      : BT.709\r\n\r\nAudio\r\nID                                       : 2\r\nFormat                                   : AC-3\r\nFormat/Info                              : Audio Coding 3\r\nMode extension                           : CM (complete main)\r\nFormat settings, Endianness              : Big\r\nCodec ID                                 : A_AC3\r\nDuration                                 : 45mn 46s\r\nBit rate mode                            : Constant\r\nBit rate                                 : 384 Kbps\r\nChannel(s)                               : 6 channels\r\nChannel positions                        : Front: L C R, Side: L R, LFE\r\nSampling rate                            : 48.0 KHz\r\nCompression mode                         : Lossy\r\nStream size                              : 126 MiB (7%)\r\nLanguage                                 : English\r\nDefault                                  : Yes\r\nForced                                   : No\r\n\r\nText\r\nID                                       : 3\r\nFormat                                   : UTF-8\r\nCodec ID                                 : S_TEXT/UTF8\r\nCodec ID/Info                            : UTF-8 Plain Text\r\nLanguage                                 : English\r\nDefault                                  : Yes\r\nForced                                   : No\r\n===================================================================================","torrent":{"xt":"urn:btih:158f0544343fd68ba2bb453d24b7f3d29e1e8e9e","amp;dn":"Bones+S11E01+1080p+WEB-DL","amp;tr":["udp%3A%2F%2Ftracker.leechers-paradise.org%3A6969","udp%3A%2F%2Fzer0day.ch%3A1337","udp%3A%2F%2Fopen.demonii.com%3A1337","udp%3A%2F%2Ftracker.coppersurfer.tk%3A6969","udp%3A%2F%2Fexodus.desync.com%3A6969"],"infoHash":"158f0544343fd68ba2bb453d24b7f3d29e1e8e9e","infoHashBuffer":{"type":"Buffer","data":[21,143,5,68,52,63,214,139,162,187,69,61,36,183,243,210,158,30,142,158]},"announce":[],"urlList":[]}}